# xmcd
#
# Track frame offsets:
#	150
#	6637
#	18330
#	30795
#	41675
#	55327
#	64604
#	78703
#	97194
#	105018
#	114903
#	127366
#	136874
#	152979
#	161774
#	174789
#	182926
#	195986
#	206382
#
# Disc length: 3136 seconds
#
# Revision: 0
# Processed by: cddbd v1.5.1PL0 Copyright (c) Steve Scherf et al.
# Submitted via: EasyCDDAExtractor 7.5.2.1
#
DISCID=f70c3e13
DTITLE=Waldir Azevedo - Meus Momentos
DYEAR=1900
DGENRE=Country
TTITLE0=Brasileirinho
TTITLE1=Delicado
TTITLE2=Preludio Pra Ninar Gente Grande
TTITLE3=Kalu
TTITLE4=Ave Maria
TTITLE5=Baiao Cacula
TTITLE6=Chorinho Antigo
TTITLE7=Abismo De Rosas
TTITLE8=Pe De Manaca
TTITLE9=Lamento
TTITLE10=Naquele Tempo
TTITLE11=Guacyra
TTITLE12=Pedacinho Do Ceu
TTITLE13=Atrevido
TTITLE14=Mulher Rendeira
TTITLE15=Noite Cheia De Estrelas
TTITLE16=Eu Sonhei Que Tu Estavas Tao Linda
TTITLE17=Asa Branca
TTITLE18=Ave Maria
EXTD=
EXTT0=
EXTT1=
EXTT2=
EXTT3=
EXTT4=
EXTT5=
EXTT6=
EXTT7=
EXTT8=
EXTT9=
EXTT10=
EXTT11=
EXTT12=
EXTT13=
EXTT14=
EXTT15=
EXTT16=
EXTT17=
EXTT18=
PLAYORDER=
